PathFileType	3	(X/Y/Z)	D:\minhoCalibration\240510\subject4_KPNP\preferred\preferred20.trc
DataRate	CameraRate	NumFrames	NumMarkers	Units	OrigDataRate	OrigDataStartFrame	OrigNumFrames
200.0	200.0	18	10	mm	200.0	307	77	
Frame#	Time	Left_Ankle_Outer1			Left_Ankle_Inner1			Left_Knee_Outer1			Left_Knee_Inner1			Left_Wrist1			Right_Wrist1			Right_Knee_Inner1			Right_Knee_Outer1			Right_Ankle_Inner1			Right_Ankle_Outer1			
		X1	Y1	Z1	X2	Y2	Z2	X3	Y3	Z3	X4	Y4	Z4	X5	Y5	Z5	X6	Y6	Z6	X7	Y7	Z7	X8	Y8	Z8	X9	Y9	Z9	X10	Y10	Z10	
307	1.525	-523.06879	419.67242	1477.3367	-457.94681	370.86154	1410.6945	-706.65656	638.65924	1057.3771	-603.91998	603.83429	1019.5139	-548.8031	1055.2882	1212.1488	-262.14709	920.45056	1379.7374	-348.87531	512.51514	1146.4476	-276.32361	515.888	1229.4352	-503.04712	70.851196	1277.9346	-459.03842	78.572845	1312.5991
308	1.53	-528.11243	431.60852	1455.9973	-460.789	384.00439	1390.3615	-700.29248	653.99731	1033.3455	-595.76117	619.64209	997.92755	-541.57874	1063.9397	1204.0043	-264.68112	923.02338	1383.5355	-347.3616	514.69086	1149.448	-276.40134	518.50873	1234.3273	-502.55804	72.945892	1277.1859	-458.84714	79.813042	1311.9459
309	1.535	-534.07373	443.92737	1434.3484	-463.89127	397.29007	1371.2427	-692.98413	670.01129	1009.3511	-586.99274	635.92657	977.13947	-534.14325	1072.5342	1196.421	-267.58466	925.4859	1387.3309	-345.7951	517.00824	1152.2344	-276.3381	521.2627	1239.1812	-502.75027	75.365479	1276.1219	-459.68079	82.146759	1311.9563
310	1.54	-541.34094	456.47675	1413.1757	-469.82632	409.97513	1351.1279	-683.54437	686.25238	985.45532	-576.01123	652.79932	956.1579	-526.31042	1081.0477	1189.2662	-270.92383	928.14166	1391.4949	-344.5564	519.49225	1155.0847	-276.52271	524.07037	1243.7517	-502.39658	77.692192	1274.3358	-460.25354	83.914978	1310.8176
311	1.545	-549.71448	469.53635	1391.8311	-475.11993	423.67203	1332.6273	-672.91321	703.26624	962.01105	-565.28046	669.49054	936.34979	-518.34705	1089.3682	1182.5323	-274.20062	930.60956	1395.64	-343.00763	521.8833	1157.6393	-276.71732	526.7572	1248.1755	-501.93292	79.638725	1271.7981	-461.09378	86.122444	1309.7168
312	1.55	-559.02557	483.14914	1370.2533	-482.2085	438.02197	1314.3671	-661.42511	721.21558	938.69501	-553.48071	686.72339	918.22388	-510.41025	1097.4104	1176.6144	-279.36639	932.30627	1399.9113	-339.92313	524.28961	1158.8992	-276.98599	529.45599	1252.4808	-502.77341	82.711082	1269.9562	-462.21182	88.431572	1308.4124
313	1.555	-569.40527	497.08344	1348.9915	-490.01733	452.70496	1296.663	-648.64526	739.95972	916.00024	-539.53979	704.54358	899.79413	-502.39963	1105.339	1171.3065	-283.50049	934.64972	1403.8392	-337.03979	526.33319	1159.9543	-277.39203	532.03003	1256.4601	-502.31628	84.941559	1267.0018	-463.54794	90.813538	1306.911
314	1.56	-580.39148	511.92023	1327.3007	-499.19812	467.2789	1278.9934	-634.40479	759.22375	893.95526	-526.23468	721.83728	883.58014	-494.21872	1112.9631	1166.5577	-289.13895	936.69659	1409.1686	-333.22406	528.76093	1160.8811	-277.87427	534.4729	1260.0226	-502.4054	87.562561	1263.9576	-465.27612	93.407196	1305.5002
315	1.565	-592.07965	527.18481	1305.6675	-509.17184	482.28815	1261.4331	-619.07861	779.04791	872.61945	-510.72699	739.7489	867.32281	-485.70911	1120.1843	1162.0199	-293.8739	938.31122	1412.6326	-330.42325	531.20282	1163.3931	-277.96078	536.9585	1263.666	-503.08429	90.550278	1261.2161	-467.01306	95.885437	1303.7666
316	1.57	-604.28845	543.53448	1283.4901	-520.01678	497.38373	1244.0765	-602.56506	799.50287	852.87042	-494.95084	757.30804	852.92969	-477.65631	1127.443	1158.2446	-299.13293	939.9209	1415.8535	-325.94351	533.1438	1163.9861	-278.50824	539.47321	1266.7224	-504.53317	94.027763	1258.2423	-468.37341	98.428452	1301.1603
317	1.575	-616.79071	560.56384	1260.9319	-531.64398	512.81036	1226.1335	-584.65204	819.61115	834.27118	-478.27893	774.84644	839.72559	-469.26935	1134.5527	1154.3358	-305.09131	941.10364	1418.4255	-322.79468	534.94867	1165.7916	-279.04532	541.89478	1269.5876	-504.7428	97.106949	1254.5059	-470.19455	101.11217	1298.8088
318	1.58	-629.20996	578.35089	1238.0664	-543.7124	528.48206	1207.6593	-566.02606	840.36743	817.39294	-461.55966	791.60529	827.74249	-461.625	1141.2468	1151.8868	-311.11093	942.35016	1422.2581	-318.20096	536.76123	1166.6565	-279.59879	544.14624	1272.0775	-504.66681	99.956917	1250.653	-471.83508	103.82321	1296.139
319	1.585	-642.12805	596.97748	1214.3174	-557.03986	544.37421	1188.53	-546.42523	860.77429	801.80927	-443.82455	808.65149	817.07404	-454.24384	1147.7338	1149.856	-317.8703	943.10828	1424.2312	-313.35187	538.66931	1167.3796	-280.29562	546.44971	1274.434	-504.72705	102.93094	1246.6466	-473.29559	106.53294	1293.3058
320	1.59	-655.28473	616.80377	1189.925	-571.58008	561.17859	1169.4994	-525.0307	880.8551	787.59357	-425.84967	824.33868	807.53961	-446.70444	1154.0873	1147.9359	-324.91238	943.51599	1426.5588	-309.60046	540.13495	1168.9559	-281.13394	548.84808	1276.7637	-504.58859	105.85009	1242.6134	-474.59311	109.20578	1290.4023
321	1.595	-668.48206	637.43225	1164.3566	-586.23175	578.53772	1147.7914	-503.60657	900.02802	776.57605	-408.28198	839.58148	800.18658	-440.29108	1160.0129	1147.0659	-332.54694	944.01978	1428.5986	-304.94031	542.05878	1170.0292	-282.32224	550.97607	1278.5393	-504.47876	109.1326	1239.6132	-475.59564	111.7487	1287.5308
322	1.6	-681.72638	658.93512	1137.5712	-601.5423	596.1593	1124.5503	-481.17752	919.11035	766.46893	-390.18073	853.87799	794.13983	-433.78027	1165.2908	1146.5409	-340.48837	944.25214	1429.9945	-300.7077	544.01495	1171.2722	-283.52258	553.31757	1280.2812	-504.34888	111.67939	1235.4434	-476.23575	114.25702	1284.7687
323	1.605	-695.06799	681.43658	1109.5984	-617.39368	614.54626	1100.9988	-458.55136	937.4126	758.82269	-372.23004	867.28125	789.68127	-426.94659	1170.954	1145.7229	-348.72876	944.21991	1430.7543	-297.05768	545.55548	1172.7485	-284.75546	555.6712	1282.1613	-502.71405	114.01579	1231.9583	-476.4519	116.58276	1282.1403
324	1.61	-707.61713	704.69342	1080.0007	-633.38873	633.92328	1075.0619	-435.35144	954.77417	753.02582	-354.44339	879.6333	786.75171	-420.96628	1175.6404	1145.3683	-357.24088	944.1308	1431.0181	-294.08801	547.35236	1174.3577	-286.47937	557.86438	1283.2717	-501.2858	116.40208	1228.7817	-476.30109	118.72974	1279.8993
